<svg width="18" height="21" viewBox="0 0 18 21" fill="none" xmlns="http://www.w3.org/2000/svg">
<g clip-path="url(#clip0_2_25)">
<path d="M9.00404 5.78321C6.44868 5.78321 4.38752 7.88731 4.38752 10.4959C4.38752 13.1045 6.44868 15.2086 9.00404 15.2086C11.5594 15.2086 13.6206 13.1045 13.6206 10.4959C13.6206 7.88731 11.5594 5.78321 9.00404 5.78321ZM9.00404 13.5598C7.3527 13.5598 6.0027 12.1857 6.0027 10.4959C6.0027 8.80606 7.34868 7.43204 9.00404 7.43204C10.6594 7.43204 12.0054 8.80606 12.0054 10.4959C12.0054 12.1857 10.6554 13.5598 9.00404 13.5598V13.5598ZM14.8862 5.59044C14.8862 6.20157 14.404 6.68966 13.8094 6.68966C13.2107 6.68966 12.7326 6.19747 12.7326 5.59044C12.7326 4.9834 13.2148 4.49122 13.8094 4.49122C14.404 4.49122 14.8862 4.9834 14.8862 5.59044ZM17.9438 6.70606C17.8755 5.2336 17.546 3.9293 16.4893 2.85469C15.4366 1.78008 14.159 1.44376 12.7165 1.36993C11.2299 1.2838 6.77413 1.2838 5.28752 1.36993C3.84913 1.43965 2.57145 1.77598 1.51475 2.85059C0.458058 3.9252 0.132612 5.2295 0.0602905 6.70196C-0.0240845 8.21954 -0.0240845 12.7682 0.0602905 14.2857C0.128594 15.7582 0.458058 17.0625 1.51475 18.1371C2.57145 19.2117 3.84511 19.5481 5.28752 19.6219C6.77413 19.708 11.2299 19.708 12.7165 19.6219C14.159 19.5522 15.4366 19.2158 16.4893 18.1371C17.542 17.0625 17.8715 15.7582 17.9438 14.2857C18.0281 12.7682 18.0281 8.22364 17.9438 6.70606V6.70606ZM16.0232 15.9141C15.7098 16.718 15.1031 17.3373 14.3116 17.6613C13.1264 18.1412 10.3139 18.0305 9.00404 18.0305C7.69422 18.0305 4.8777 18.1371 3.69645 17.6613C2.90895 17.3414 2.30225 16.7221 1.98484 15.9141C1.51475 14.7041 1.62324 11.833 1.62324 10.4959C1.62324 9.1588 1.51877 6.2836 1.98484 5.07774C2.29824 4.27383 2.90493 3.6545 3.69645 3.33047C4.88172 2.85059 7.69422 2.96133 9.00404 2.96133C10.3139 2.96133 13.1304 2.85469 14.3116 3.33047C15.0991 3.6504 15.7058 4.26973 16.0232 5.07774C16.4933 6.2877 16.3848 9.1588 16.3848 10.4959C16.3848 11.833 16.4933 14.7082 16.0232 15.9141Z" fill="white"/>
</g>
<defs>
<clipPath id="clip0_2_25">
<rect width="18" height="21" fill="white"/>
</clipPath>
</defs>
</svg>
