<svg width="18" height="18" viewBox="0 0 18 18" fill="none" xmlns="http://www.w3.org/2000/svg">
<path d="M16.1497 5.33377C16.1612 5.49366 16.1612 5.65358 16.1612 5.81347C16.1612 10.6903 12.4492 16.3097 5.66497 16.3097C3.57486 16.3097 1.63325 15.7043 0 14.6536C0.296965 14.6878 0.582469 14.6993 0.890859 14.6993C2.61545 14.6993 4.20304 14.1168 5.4708 13.1231C3.84898 13.0888 2.48984 12.0267 2.02155 10.5647C2.25 10.599 2.47841 10.6218 2.71828 10.6218C3.04949 10.6218 3.38073 10.5761 3.68909 10.4962C1.99874 10.1535 0.730934 8.66879 0.730934 6.87565V6.82998C1.22203 7.10409 1.79314 7.27541 2.39843 7.29823C1.40477 6.63578 0.753785 5.50508 0.753785 4.22589C0.753785 3.54062 0.936492 2.91245 1.25631 2.36422C3.0723 4.6028 5.80201 6.0647 8.86289 6.22463C8.8058 5.95051 8.77152 5.66501 8.77152 5.37947C8.77152 3.34645 10.4162 1.69038 12.4606 1.69038C13.5228 1.69038 14.4822 2.13581 15.156 2.85536C15.9898 2.69547 16.7893 2.38708 17.4974 1.9645C17.2233 2.82111 16.6408 3.54066 15.8756 3.99748C16.618 3.91757 17.3375 3.71194 17.9999 3.42643C17.4975 4.15737 16.8693 4.80836 16.1497 5.33377V5.33377Z" fill="white"/>
</svg>
